<mxfile host="app.diagrams.net" agent="Mozilla/5.0 (Windows NT 10.0; Win64; x64) AppleWebKit/537.36 (KHTML, like Gecko) Chrome/132.0.0.0 Safari/537.36" version="26.0.11">
  <diagram name="Page-1" id="38F-EUt0KSv930CptKiu">
    <mxGraphModel dx="1646" dy="1610" grid="1" gridSize="10" guides="1" tooltips="1" connect="1" arrows="1" fold="1" page="1" pageScale="1" pageWidth="827" pageHeight="1169" math="0" shadow="0">
      <root>
        <mxCell id="0" />
        <mxCell id="1" parent="0" />
        <mxCell id="RsfGlkPrkZYIVj8h8bdf-144" value="" style="endArrow=none;dashed=1;html=1;dashPattern=1 3;strokeWidth=2;rounded=0;entryX=0;entryY=0;entryDx=110;entryDy=0;entryPerimeter=0;fontSize=14;" parent="1" target="RsfGlkPrkZYIVj8h8bdf-143" edge="1">
          <mxGeometry width="50" height="50" relative="1" as="geometry">
            <mxPoint x="122" y="14" as="sourcePoint" />
            <mxPoint x="100" y="-60" as="targetPoint" />
          </mxGeometry>
        </mxCell>
        <mxCell id="NaRHOr1kHkGD2ttG-riy-2" value="" style="endArrow=none;dashed=1;html=1;dashPattern=1 3;strokeWidth=2;rounded=0;fontSize=14;exitX=0;exitY=0;exitDx=135;exitDy=15;exitPerimeter=0;" parent="1" source="RsfGlkPrkZYIVj8h8bdf-123" edge="1">
          <mxGeometry width="50" height="50" relative="1" as="geometry">
            <mxPoint x="-205" y="410" as="sourcePoint" />
            <mxPoint x="-240" y="280" as="targetPoint" />
          </mxGeometry>
        </mxCell>
        <mxCell id="RsfGlkPrkZYIVj8h8bdf-132" value="" style="endArrow=none;html=1;rounded=0;entryX=0.5;entryY=1;entryDx=0;entryDy=0;exitX=0.5;exitY=0;exitDx=0;exitDy=0;fontSize=14;spacing=0;" parent="1" source="RsfGlkPrkZYIVj8h8bdf-12" target="RsfGlkPrkZYIVj8h8bdf-131" edge="1">
          <mxGeometry width="50" height="50" relative="1" as="geometry">
            <mxPoint x="430" y="180" as="sourcePoint" />
            <mxPoint x="480" y="130" as="targetPoint" />
          </mxGeometry>
        </mxCell>
        <mxCell id="E9qgntLhu_--cD-7HNb7-1" value="0..*" style="edgeLabel;html=1;align=center;verticalAlign=middle;resizable=0;points=[];" parent="RsfGlkPrkZYIVj8h8bdf-132" vertex="1" connectable="0">
          <mxGeometry x="0.8339" y="-1" relative="1" as="geometry">
            <mxPoint x="14" as="offset" />
          </mxGeometry>
        </mxCell>
        <mxCell id="E9qgntLhu_--cD-7HNb7-2" value="1" style="edgeLabel;html=1;align=center;verticalAlign=middle;resizable=0;points=[];" parent="RsfGlkPrkZYIVj8h8bdf-132" vertex="1" connectable="0">
          <mxGeometry x="-0.7044" y="-1" relative="1" as="geometry">
            <mxPoint x="14" y="9" as="offset" />
          </mxGeometry>
        </mxCell>
        <mxCell id="E9qgntLhu_--cD-7HNb7-3" value="Linked" style="edgeLabel;html=1;align=center;verticalAlign=middle;resizable=0;points=[];" parent="RsfGlkPrkZYIVj8h8bdf-132" vertex="1" connectable="0">
          <mxGeometry x="0.3901" y="1" relative="1" as="geometry">
            <mxPoint y="19" as="offset" />
          </mxGeometry>
        </mxCell>
        <mxCell id="NaRHOr1kHkGD2ttG-riy-1" value="" style="endArrow=none;dashed=1;html=1;dashPattern=1 3;strokeWidth=2;rounded=0;fontSize=14;entryX=0;entryY=0;entryDx=150;entryDy=30;entryPerimeter=0;" parent="1" target="RsfGlkPrkZYIVj8h8bdf-121" edge="1">
          <mxGeometry width="50" height="50" relative="1" as="geometry">
            <mxPoint x="180" y="360" as="sourcePoint" />
            <mxPoint x="490" y="340" as="targetPoint" />
          </mxGeometry>
        </mxCell>
        <mxCell id="RsfGlkPrkZYIVj8h8bdf-92" value="" style="endArrow=none;dashed=1;html=1;dashPattern=1 3;strokeWidth=2;rounded=0;entryX=0.5;entryY=1;entryDx=0;entryDy=0;exitX=0.5;exitY=1;exitDx=0;exitDy=0;exitPerimeter=0;fontSize=14;" parent="1" source="RsfGlkPrkZYIVj8h8bdf-91" target="RsfGlkPrkZYIVj8h8bdf-19" edge="1">
          <mxGeometry width="50" height="50" relative="1" as="geometry">
            <mxPoint x="-70" y="330" as="sourcePoint" />
            <mxPoint x="-20" y="280" as="targetPoint" />
          </mxGeometry>
        </mxCell>
        <mxCell id="RsfGlkPrkZYIVj8h8bdf-3" value="" style="group;fontSize=14;" parent="1" vertex="1" connectable="0">
          <mxGeometry x="-170" y="-10" width="180" height="140" as="geometry" />
        </mxCell>
        <mxCell id="RsfGlkPrkZYIVj8h8bdf-4" value="" style="edgeStyle=orthogonalEdgeStyle;rounded=0;orthogonalLoop=1;jettySize=auto;html=1;fontSize=14;" parent="RsfGlkPrkZYIVj8h8bdf-3" source="RsfGlkPrkZYIVj8h8bdf-1" target="RsfGlkPrkZYIVj8h8bdf-2" edge="1">
          <mxGeometry relative="1" as="geometry" />
        </mxCell>
        <mxCell id="RsfGlkPrkZYIVj8h8bdf-1" value="FacilityTY" style="rounded=0;whiteSpace=wrap;html=1;fontSize=14;" parent="RsfGlkPrkZYIVj8h8bdf-3" vertex="1">
          <mxGeometry width="180" height="35" as="geometry" />
        </mxCell>
        <mxCell id="RsfGlkPrkZYIVj8h8bdf-2" value="Name{ID}: String&lt;div&gt;Type: String&lt;/div&gt;&lt;div&gt;EfficiencyScore: Real&lt;/div&gt;&lt;div&gt;MaxOutputEnergy: Real&lt;/div&gt;&lt;div&gt;SumOutputEnegery: Real&lt;/div&gt;" style="rounded=0;whiteSpace=wrap;html=1;fontSize=14;" parent="RsfGlkPrkZYIVj8h8bdf-3" vertex="1">
          <mxGeometry y="35" width="180" height="105" as="geometry" />
        </mxCell>
        <mxCell id="RsfGlkPrkZYIVj8h8bdf-6" value="" style="group;fontSize=14;" parent="1" vertex="1" connectable="0">
          <mxGeometry x="240" y="-70" width="150" height="260" as="geometry" />
        </mxCell>
        <mxCell id="RsfGlkPrkZYIVj8h8bdf-7" value="" style="edgeStyle=orthogonalEdgeStyle;rounded=0;orthogonalLoop=1;jettySize=auto;html=1;fontSize=14;" parent="RsfGlkPrkZYIVj8h8bdf-6" source="RsfGlkPrkZYIVj8h8bdf-8" target="RsfGlkPrkZYIVj8h8bdf-9" edge="1">
          <mxGeometry relative="1" as="geometry" />
        </mxCell>
        <mxCell id="RsfGlkPrkZYIVj8h8bdf-8" value="ContractTY" style="rounded=0;whiteSpace=wrap;html=1;fontSize=14;" parent="RsfGlkPrkZYIVj8h8bdf-6" vertex="1">
          <mxGeometry width="150" height="45" as="geometry" />
        </mxCell>
        <mxCell id="RsfGlkPrkZYIVj8h8bdf-9" value="Id{ID}: String&lt;div&gt;Active: Char&lt;/div&gt;&lt;div&gt;Type: String&lt;/div&gt;&lt;div&gt;Start_Date: Date&lt;/div&gt;&lt;div&gt;Cost: Real&lt;/div&gt;&lt;div&gt;EnergyPlan: Real&lt;/div&gt;&lt;div&gt;Duration:Real&lt;/div&gt;" style="rounded=0;whiteSpace=wrap;html=1;fontSize=14;" parent="RsfGlkPrkZYIVj8h8bdf-6" vertex="1">
          <mxGeometry y="45" width="150" height="135" as="geometry" />
        </mxCell>
        <mxCell id="RsfGlkPrkZYIVj8h8bdf-131" value="" style="rhombus;whiteSpace=wrap;html=1;fontSize=14;" parent="RsfGlkPrkZYIVj8h8bdf-6" vertex="1">
          <mxGeometry x="52.5" y="180" width="45" height="50" as="geometry" />
        </mxCell>
        <mxCell id="RsfGlkPrkZYIVj8h8bdf-10" value="" style="group;fontSize=14;" parent="1" vertex="1" connectable="0">
          <mxGeometry x="240" y="290" width="150" height="110" as="geometry" />
        </mxCell>
        <mxCell id="RsfGlkPrkZYIVj8h8bdf-11" value="" style="edgeStyle=orthogonalEdgeStyle;rounded=0;orthogonalLoop=1;jettySize=auto;html=1;fontSize=14;" parent="RsfGlkPrkZYIVj8h8bdf-10" source="RsfGlkPrkZYIVj8h8bdf-12" target="RsfGlkPrkZYIVj8h8bdf-13" edge="1">
          <mxGeometry relative="1" as="geometry" />
        </mxCell>
        <mxCell id="RsfGlkPrkZYIVj8h8bdf-12" value="AccountTY" style="rounded=0;whiteSpace=wrap;html=1;fontSize=14;" parent="RsfGlkPrkZYIVj8h8bdf-10" vertex="1">
          <mxGeometry width="150" height="27.5" as="geometry" />
        </mxCell>
        <mxCell id="RsfGlkPrkZYIVj8h8bdf-13" value="Code{ID}: String" style="rounded=0;whiteSpace=wrap;html=1;fontSize=14;" parent="RsfGlkPrkZYIVj8h8bdf-10" vertex="1">
          <mxGeometry y="27.5" width="150" height="82.5" as="geometry" />
        </mxCell>
        <mxCell id="RsfGlkPrkZYIVj8h8bdf-16" value="" style="group;fontSize=14;" parent="1" vertex="1" connectable="0">
          <mxGeometry x="595" y="240" width="150" height="140" as="geometry" />
        </mxCell>
        <mxCell id="RsfGlkPrkZYIVj8h8bdf-17" value="" style="edgeStyle=orthogonalEdgeStyle;rounded=0;orthogonalLoop=1;jettySize=auto;html=1;fontSize=14;" parent="RsfGlkPrkZYIVj8h8bdf-16" source="RsfGlkPrkZYIVj8h8bdf-18" target="RsfGlkPrkZYIVj8h8bdf-19" edge="1">
          <mxGeometry relative="1" as="geometry" />
        </mxCell>
        <mxCell id="RsfGlkPrkZYIVj8h8bdf-18" value="CustomerTY" style="rounded=0;whiteSpace=wrap;html=1;fontSize=14;" parent="RsfGlkPrkZYIVj8h8bdf-16" vertex="1">
          <mxGeometry width="150" height="35" as="geometry" />
        </mxCell>
        <mxCell id="RsfGlkPrkZYIVj8h8bdf-19" value="Code{ID}: String&lt;div&gt;Name: String&lt;/div&gt;&lt;div&gt;Surname: String&lt;/div&gt;&lt;div&gt;DoB: Date&lt;/div&gt;&lt;div&gt;Email: String&lt;/div&gt;&lt;div&gt;Type: String&lt;/div&gt;" style="rounded=0;whiteSpace=wrap;html=1;fontSize=14;" parent="RsfGlkPrkZYIVj8h8bdf-16" vertex="1">
          <mxGeometry y="35" width="150" height="105" as="geometry" />
        </mxCell>
        <mxCell id="RsfGlkPrkZYIVj8h8bdf-20" value="" style="group;fontSize=14;" parent="1" vertex="1" connectable="0">
          <mxGeometry x="-70" y="450" width="150" height="110" as="geometry" />
        </mxCell>
        <mxCell id="RsfGlkPrkZYIVj8h8bdf-21" value="" style="edgeStyle=orthogonalEdgeStyle;rounded=0;orthogonalLoop=1;jettySize=auto;html=1;fontSize=14;" parent="RsfGlkPrkZYIVj8h8bdf-20" source="RsfGlkPrkZYIVj8h8bdf-22" target="RsfGlkPrkZYIVj8h8bdf-23" edge="1">
          <mxGeometry relative="1" as="geometry" />
        </mxCell>
        <mxCell id="RsfGlkPrkZYIVj8h8bdf-22" value="FeedbackTY" style="rounded=0;whiteSpace=wrap;html=1;fontSize=14;" parent="RsfGlkPrkZYIVj8h8bdf-20" vertex="1">
          <mxGeometry width="150" height="27.5" as="geometry" />
        </mxCell>
        <mxCell id="RsfGlkPrkZYIVj8h8bdf-23" value="Code{ID}: String&lt;div&gt;Message: String&lt;/div&gt;&lt;div&gt;Score: Integer&lt;/div&gt;" style="rounded=0;whiteSpace=wrap;html=1;fontSize=14;" parent="RsfGlkPrkZYIVj8h8bdf-20" vertex="1">
          <mxGeometry y="27.5" width="150" height="82.5" as="geometry" />
        </mxCell>
        <mxCell id="RsfGlkPrkZYIVj8h8bdf-24" value="" style="group;fontSize=14;" parent="1" vertex="1" connectable="0">
          <mxGeometry x="-520" y="210" width="150" height="110" as="geometry" />
        </mxCell>
        <mxCell id="RsfGlkPrkZYIVj8h8bdf-27" value="Code{ID}: String&lt;div&gt;Name String&lt;/div&gt;&lt;div&gt;Uptime:Integer&lt;/div&gt;" style="rounded=0;whiteSpace=wrap;html=1;fontSize=14;" parent="RsfGlkPrkZYIVj8h8bdf-24" vertex="1">
          <mxGeometry y="27.5" width="150" height="82.5" as="geometry" />
        </mxCell>
        <mxCell id="RsfGlkPrkZYIVj8h8bdf-26" value="TeamTY" style="rounded=0;whiteSpace=wrap;html=1;fontSize=14;" parent="RsfGlkPrkZYIVj8h8bdf-24" vertex="1">
          <mxGeometry width="150" height="27.5" as="geometry" />
        </mxCell>
        <mxCell id="RsfGlkPrkZYIVj8h8bdf-29" value="" style="group;fontSize=14;" parent="1" vertex="1" connectable="0">
          <mxGeometry x="-520" y="490" width="150" height="150" as="geometry" />
        </mxCell>
        <mxCell id="RsfGlkPrkZYIVj8h8bdf-30" value="" style="edgeStyle=orthogonalEdgeStyle;rounded=0;orthogonalLoop=1;jettySize=auto;html=1;fontSize=14;" parent="RsfGlkPrkZYIVj8h8bdf-29" source="RsfGlkPrkZYIVj8h8bdf-31" target="RsfGlkPrkZYIVj8h8bdf-32" edge="1">
          <mxGeometry relative="1" as="geometry" />
        </mxCell>
        <mxCell id="RsfGlkPrkZYIVj8h8bdf-31" value="EmployeeTY" style="rounded=0;whiteSpace=wrap;html=1;fontSize=14;" parent="RsfGlkPrkZYIVj8h8bdf-29" vertex="1">
          <mxGeometry width="150" height="37.5" as="geometry" />
        </mxCell>
        <mxCell id="RsfGlkPrkZYIVj8h8bdf-32" value="FC{ID}: String&lt;div&gt;Name: String&lt;/div&gt;&lt;div&gt;Surname: String&lt;/div&gt;&lt;div&gt;DoB: Date&lt;/div&gt;&lt;div&gt;DoH: Date&lt;/div&gt;&lt;div&gt;Manager: Char&lt;/div&gt;" style="rounded=0;whiteSpace=wrap;html=1;fontSize=14;" parent="RsfGlkPrkZYIVj8h8bdf-29" vertex="1">
          <mxGeometry y="37.5" width="150" height="112.49999999999999" as="geometry" />
        </mxCell>
        <mxCell id="RsfGlkPrkZYIVj8h8bdf-46" value="" style="group;fontSize=14;" parent="1" vertex="1" connectable="0">
          <mxGeometry x="-310" y="-240" width="120" height="40" as="geometry" />
        </mxCell>
        <mxCell id="RsfGlkPrkZYIVj8h8bdf-44" value="Facility&lt;div&gt;&amp;lt;&amp;lt;Container&amp;gt;&amp;gt;&lt;/div&gt;" style="rounded=0;whiteSpace=wrap;html=1;fontSize=14;" parent="RsfGlkPrkZYIVj8h8bdf-46" vertex="1">
          <mxGeometry width="120" height="28" as="geometry" />
        </mxCell>
        <mxCell id="RsfGlkPrkZYIVj8h8bdf-45" value="" style="rounded=0;whiteSpace=wrap;html=1;fontSize=14;" parent="RsfGlkPrkZYIVj8h8bdf-46" vertex="1">
          <mxGeometry y="28" width="120" height="12" as="geometry" />
        </mxCell>
        <mxCell id="RsfGlkPrkZYIVj8h8bdf-47" value="" style="group;fontSize=14;" parent="1" vertex="1" connectable="0">
          <mxGeometry x="-730" y="210" width="120" height="40" as="geometry" />
        </mxCell>
        <mxCell id="RsfGlkPrkZYIVj8h8bdf-48" value="Team&lt;br&gt;&lt;div&gt;&amp;lt;&amp;lt;Container&amp;gt;&amp;gt;&lt;/div&gt;" style="rounded=0;whiteSpace=wrap;html=1;fontSize=14;" parent="RsfGlkPrkZYIVj8h8bdf-47" vertex="1">
          <mxGeometry width="120" height="28" as="geometry" />
        </mxCell>
        <mxCell id="RsfGlkPrkZYIVj8h8bdf-49" value="" style="rounded=0;whiteSpace=wrap;html=1;fontSize=14;" parent="RsfGlkPrkZYIVj8h8bdf-47" vertex="1">
          <mxGeometry y="28" width="120" height="12" as="geometry" />
        </mxCell>
        <mxCell id="RsfGlkPrkZYIVj8h8bdf-50" value="" style="group;fontSize=14;" parent="1" vertex="1" connectable="0">
          <mxGeometry x="-750" y="560" width="120" height="40" as="geometry" />
        </mxCell>
        <mxCell id="RsfGlkPrkZYIVj8h8bdf-51" value="Employee&lt;br&gt;&lt;div&gt;&amp;lt;&amp;lt;Container&amp;gt;&amp;gt;&lt;/div&gt;" style="rounded=0;whiteSpace=wrap;html=1;fontSize=14;" parent="RsfGlkPrkZYIVj8h8bdf-50" vertex="1">
          <mxGeometry width="120" height="28" as="geometry" />
        </mxCell>
        <mxCell id="RsfGlkPrkZYIVj8h8bdf-52" value="" style="rounded=0;whiteSpace=wrap;html=1;fontSize=14;" parent="RsfGlkPrkZYIVj8h8bdf-50" vertex="1">
          <mxGeometry y="28" width="120" height="12" as="geometry" />
        </mxCell>
        <mxCell id="RsfGlkPrkZYIVj8h8bdf-53" value="" style="group;fontSize=14;" parent="1" vertex="1" connectable="0">
          <mxGeometry x="260" y="-220" width="120" height="40" as="geometry" />
        </mxCell>
        <mxCell id="RsfGlkPrkZYIVj8h8bdf-54" value="Contract&lt;div&gt;&amp;lt;&amp;lt;Container&amp;gt;&amp;gt;&lt;/div&gt;" style="rounded=0;whiteSpace=wrap;html=1;fontSize=14;" parent="RsfGlkPrkZYIVj8h8bdf-53" vertex="1">
          <mxGeometry width="120" height="28" as="geometry" />
        </mxCell>
        <mxCell id="RsfGlkPrkZYIVj8h8bdf-55" value="" style="rounded=0;whiteSpace=wrap;html=1;fontSize=14;" parent="RsfGlkPrkZYIVj8h8bdf-53" vertex="1">
          <mxGeometry y="28" width="120" height="12" as="geometry" />
        </mxCell>
        <mxCell id="RsfGlkPrkZYIVj8h8bdf-56" value="" style="group;fontSize=14;" parent="1" vertex="1" connectable="0">
          <mxGeometry x="260" y="490" width="120" height="40" as="geometry" />
        </mxCell>
        <mxCell id="RsfGlkPrkZYIVj8h8bdf-57" value="Account&lt;div&gt;&amp;lt;&amp;lt;Container&amp;gt;&amp;gt;&lt;/div&gt;" style="rounded=0;whiteSpace=wrap;html=1;fontSize=14;" parent="RsfGlkPrkZYIVj8h8bdf-56" vertex="1">
          <mxGeometry width="120" height="28" as="geometry" />
        </mxCell>
        <mxCell id="RsfGlkPrkZYIVj8h8bdf-58" value="" style="rounded=0;whiteSpace=wrap;html=1;fontSize=14;" parent="RsfGlkPrkZYIVj8h8bdf-56" vertex="1">
          <mxGeometry y="28" width="120" height="12" as="geometry" />
        </mxCell>
        <mxCell id="RsfGlkPrkZYIVj8h8bdf-59" value="" style="group;fontSize=14;" parent="1" vertex="1" connectable="0">
          <mxGeometry x="610" y="100" width="120" height="40" as="geometry" />
        </mxCell>
        <mxCell id="RsfGlkPrkZYIVj8h8bdf-60" value="Customer&lt;br&gt;&lt;div&gt;&amp;lt;&amp;lt;Container&amp;gt;&amp;gt;&lt;/div&gt;" style="rounded=0;whiteSpace=wrap;html=1;fontSize=14;" parent="RsfGlkPrkZYIVj8h8bdf-59" vertex="1">
          <mxGeometry width="120" height="28" as="geometry" />
        </mxCell>
        <mxCell id="RsfGlkPrkZYIVj8h8bdf-61" value="" style="rounded=0;whiteSpace=wrap;html=1;fontSize=14;" parent="RsfGlkPrkZYIVj8h8bdf-59" vertex="1">
          <mxGeometry y="28" width="120" height="12" as="geometry" />
        </mxCell>
        <mxCell id="RsfGlkPrkZYIVj8h8bdf-62" value="" style="group;fontSize=14;" parent="1" vertex="1" connectable="0">
          <mxGeometry x="-50" y="630" width="120" height="40" as="geometry" />
        </mxCell>
        <mxCell id="RsfGlkPrkZYIVj8h8bdf-63" value="FeedBack&lt;div&gt;&amp;lt;&amp;lt;Container&amp;gt;&amp;gt;&lt;/div&gt;" style="rounded=0;whiteSpace=wrap;html=1;fontSize=14;" parent="RsfGlkPrkZYIVj8h8bdf-62" vertex="1">
          <mxGeometry width="120" height="28" as="geometry" />
        </mxCell>
        <mxCell id="RsfGlkPrkZYIVj8h8bdf-64" value="" style="rounded=0;whiteSpace=wrap;html=1;fontSize=14;" parent="RsfGlkPrkZYIVj8h8bdf-62" vertex="1">
          <mxGeometry y="28" width="120" height="12" as="geometry" />
        </mxCell>
        <mxCell id="RsfGlkPrkZYIVj8h8bdf-65" value="" style="rhombus;whiteSpace=wrap;html=1;fontSize=14;" parent="1" vertex="1">
          <mxGeometry x="-610" y="218" width="40" height="40" as="geometry" />
        </mxCell>
        <mxCell id="RsfGlkPrkZYIVj8h8bdf-66" value="" style="rhombus;whiteSpace=wrap;html=1;fontSize=14;" parent="1" vertex="1">
          <mxGeometry x="-630" y="560" width="40" height="40" as="geometry" />
        </mxCell>
        <mxCell id="RsfGlkPrkZYIVj8h8bdf-67" value="" style="rhombus;whiteSpace=wrap;html=1;fontSize=14;" parent="1" vertex="1">
          <mxGeometry x="-20" y="590" width="40" height="40" as="geometry" />
        </mxCell>
        <mxCell id="NaRHOr1kHkGD2ttG-riy-9" style="edgeStyle=orthogonalEdgeStyle;rounded=0;orthogonalLoop=1;jettySize=auto;html=1;exitX=0.5;exitY=1;exitDx=0;exitDy=0;entryX=0.5;entryY=0;entryDx=0;entryDy=0;endArrow=none;startFill=0;" parent="1" source="RsfGlkPrkZYIVj8h8bdf-68" target="RsfGlkPrkZYIVj8h8bdf-8" edge="1">
          <mxGeometry relative="1" as="geometry">
            <Array as="points">
              <mxPoint x="320" y="-70" />
            </Array>
          </mxGeometry>
        </mxCell>
        <mxCell id="RsfGlkPrkZYIVj8h8bdf-68" value="" style="rhombus;whiteSpace=wrap;html=1;fontSize=14;" parent="1" vertex="1">
          <mxGeometry x="300" y="-180" width="40" height="40" as="geometry" />
        </mxCell>
        <mxCell id="RsfGlkPrkZYIVj8h8bdf-69" value="" style="rhombus;whiteSpace=wrap;html=1;fontSize=14;" parent="1" vertex="1">
          <mxGeometry x="-190" y="-240" width="40" height="40" as="geometry" />
        </mxCell>
        <mxCell id="RsfGlkPrkZYIVj8h8bdf-70" value="" style="rhombus;whiteSpace=wrap;html=1;fontSize=14;" parent="1" vertex="1">
          <mxGeometry x="295" y="450" width="40" height="40" as="geometry" />
        </mxCell>
        <mxCell id="RsfGlkPrkZYIVj8h8bdf-71" value="" style="rhombus;whiteSpace=wrap;html=1;fontSize=14;" parent="1" vertex="1">
          <mxGeometry x="650" y="140" width="40" height="40" as="geometry" />
        </mxCell>
        <mxCell id="RsfGlkPrkZYIVj8h8bdf-72" value="" style="endArrow=none;html=1;rounded=0;entryX=0;entryY=0;entryDx=0;entryDy=0;exitX=1;exitY=0.5;exitDx=0;exitDy=0;fontSize=14;" parent="1" source="RsfGlkPrkZYIVj8h8bdf-65" target="RsfGlkPrkZYIVj8h8bdf-27" edge="1">
          <mxGeometry width="50" height="50" relative="1" as="geometry">
            <mxPoint x="-640" y="360" as="sourcePoint" />
            <mxPoint x="-590" y="310" as="targetPoint" />
          </mxGeometry>
        </mxCell>
        <mxCell id="RsfGlkPrkZYIVj8h8bdf-73" value="" style="endArrow=none;html=1;rounded=0;exitX=1;exitY=0.5;exitDx=0;exitDy=0;fontSize=14;" parent="1" source="RsfGlkPrkZYIVj8h8bdf-66" edge="1">
          <mxGeometry width="50" height="50" relative="1" as="geometry">
            <mxPoint x="-650" y="520" as="sourcePoint" />
            <mxPoint x="-520" y="580" as="targetPoint" />
          </mxGeometry>
        </mxCell>
        <mxCell id="RsfGlkPrkZYIVj8h8bdf-74" value="" style="endArrow=none;html=1;rounded=0;exitX=0.5;exitY=0;exitDx=0;exitDy=0;fontSize=14;" parent="1" source="RsfGlkPrkZYIVj8h8bdf-67" edge="1">
          <mxGeometry width="50" height="50" relative="1" as="geometry">
            <mxPoint x="-30" y="620" as="sourcePoint" />
            <mxPoint y="560" as="targetPoint" />
          </mxGeometry>
        </mxCell>
        <mxCell id="RsfGlkPrkZYIVj8h8bdf-75" value="" style="endArrow=none;html=1;rounded=0;entryX=0.5;entryY=1;entryDx=0;entryDy=0;exitX=0.5;exitY=0;exitDx=0;exitDy=0;fontSize=14;" parent="1" source="RsfGlkPrkZYIVj8h8bdf-70" target="RsfGlkPrkZYIVj8h8bdf-13" edge="1">
          <mxGeometry width="50" height="50" relative="1" as="geometry">
            <mxPoint x="400" y="600" as="sourcePoint" />
            <mxPoint x="450" y="550" as="targetPoint" />
          </mxGeometry>
        </mxCell>
        <mxCell id="RsfGlkPrkZYIVj8h8bdf-76" value="" style="endArrow=none;html=1;rounded=0;entryX=0.5;entryY=0;entryDx=0;entryDy=0;exitX=0.5;exitY=1;exitDx=0;exitDy=0;fontSize=14;" parent="1" source="RsfGlkPrkZYIVj8h8bdf-71" target="RsfGlkPrkZYIVj8h8bdf-18" edge="1">
          <mxGeometry width="50" height="50" relative="1" as="geometry">
            <mxPoint x="620" y="580" as="sourcePoint" />
            <mxPoint x="670" y="530" as="targetPoint" />
          </mxGeometry>
        </mxCell>
        <mxCell id="RsfGlkPrkZYIVj8h8bdf-77" value="" style="endArrow=none;html=1;rounded=0;entryX=1;entryY=0.5;entryDx=0;entryDy=0;exitX=0.25;exitY=0;exitDx=0;exitDy=0;fontSize=14;edgeStyle=orthogonalEdgeStyle;" parent="1" source="RsfGlkPrkZYIVj8h8bdf-1" target="RsfGlkPrkZYIVj8h8bdf-69" edge="1">
          <mxGeometry width="50" height="50" relative="1" as="geometry">
            <mxPoint x="-370" y="40" as="sourcePoint" />
            <mxPoint x="-320" y="-10" as="targetPoint" />
            <Array as="points">
              <mxPoint x="-130" y="-10" />
              <mxPoint x="-130" y="-220" />
            </Array>
          </mxGeometry>
        </mxCell>
        <mxCell id="RsfGlkPrkZYIVj8h8bdf-80" value="Uptime betweer 6 and 8" style="shape=note;whiteSpace=wrap;html=1;backgroundOutline=1;darkOpacity=0.05;align=left;fontSize=14;size=22;" parent="1" vertex="1">
          <mxGeometry x="-770" y="275" width="180" height="50" as="geometry" />
        </mxCell>
        <mxCell id="RsfGlkPrkZYIVj8h8bdf-82" value="" style="endArrow=none;dashed=1;html=1;dashPattern=1 3;strokeWidth=2;rounded=0;fontSize=14;exitX=1.002;exitY=0.505;exitDx=0;exitDy=0;exitPerimeter=0;" parent="1" source="RsfGlkPrkZYIVj8h8bdf-80" edge="1">
          <mxGeometry width="50" height="50" relative="1" as="geometry">
            <mxPoint x="-590" y="320" as="sourcePoint" />
            <mxPoint x="-520" y="300" as="targetPoint" />
          </mxGeometry>
        </mxCell>
        <mxCell id="RsfGlkPrkZYIVj8h8bdf-83" value="Can&#39;t be a minor&lt;div&gt;DoH &amp;gt; DoB&lt;/div&gt;" style="shape=note;whiteSpace=wrap;html=1;backgroundOutline=1;darkOpacity=0.05;align=left;fontSize=14;size=22;" parent="1" vertex="1">
          <mxGeometry x="-320" y="550" width="130" height="60" as="geometry" />
        </mxCell>
        <mxCell id="RsfGlkPrkZYIVj8h8bdf-84" value="" style="endArrow=none;dashed=1;html=1;dashPattern=1 3;strokeWidth=2;rounded=0;exitX=0;exitY=0.5;exitDx=0;exitDy=0;exitPerimeter=0;fontSize=14;entryX=1.005;entryY=0.444;entryDx=0;entryDy=0;entryPerimeter=0;" parent="1" source="RsfGlkPrkZYIVj8h8bdf-83" target="RsfGlkPrkZYIVj8h8bdf-32" edge="1">
          <mxGeometry width="50" height="50" relative="1" as="geometry">
            <mxPoint x="-500" y="780" as="sourcePoint" />
            <mxPoint x="-370" y="560" as="targetPoint" />
          </mxGeometry>
        </mxCell>
        <mxCell id="RsfGlkPrkZYIVj8h8bdf-85" value="Energy efficiency is the percentage of energy produced compared to the maximum energy output capacity of the facility. Between 0 and 100&lt;div&gt;MaxOutputEnergy &amp;gt;=0&lt;/div&gt;&lt;div&gt;SumOutputEnergy &amp;gt;=0&lt;br&gt;&lt;div&gt;&lt;br&gt;&lt;/div&gt;&lt;div&gt;Type can be: wind, solar, hydro, nuclear&lt;/div&gt;&lt;/div&gt;" style="shape=note;whiteSpace=wrap;html=1;backgroundOutline=1;darkOpacity=0.05;align=left;fontSize=14;" parent="1" vertex="1">
          <mxGeometry x="-700" y="-50" width="390" height="130" as="geometry" />
        </mxCell>
        <mxCell id="RsfGlkPrkZYIVj8h8bdf-89" value="" style="endArrow=none;dashed=1;html=1;dashPattern=1 3;strokeWidth=2;rounded=0;exitX=0;exitY=0;exitDx=390;exitDy=60;exitPerimeter=0;fontSize=14;" parent="1" source="RsfGlkPrkZYIVj8h8bdf-85" edge="1">
          <mxGeometry width="50" height="50" relative="1" as="geometry">
            <mxPoint x="-310" y="90" as="sourcePoint" />
            <mxPoint x="-170" y="10" as="targetPoint" />
          </mxGeometry>
        </mxCell>
        <mxCell id="RsfGlkPrkZYIVj8h8bdf-91" value="He can&#39;t be a minor&lt;div&gt;Type is Commercial or Residential&lt;/div&gt;" style="shape=note;whiteSpace=wrap;html=1;backgroundOutline=1;darkOpacity=0.05;align=left;fontSize=14;" parent="1" vertex="1">
          <mxGeometry x="595" y="430" width="155" height="80" as="geometry" />
        </mxCell>
        <mxCell id="RsfGlkPrkZYIVj8h8bdf-93" value="Score is a&amp;nbsp;&lt;div&gt;number between&amp;nbsp;&lt;/div&gt;&lt;div&gt;0 and 5&lt;/div&gt;" style="shape=note;whiteSpace=wrap;html=1;backgroundOutline=1;darkOpacity=0.05;align=left;fontSize=14;size=24;" parent="1" vertex="1">
          <mxGeometry x="130" y="510" width="120" height="65" as="geometry" />
        </mxCell>
        <mxCell id="RsfGlkPrkZYIVj8h8bdf-94" value="" style="endArrow=none;dashed=1;html=1;dashPattern=1 3;strokeWidth=2;rounded=0;exitX=0.998;exitY=0.787;exitDx=0;exitDy=0;entryX=0;entryY=0.5;entryDx=0;entryDy=0;entryPerimeter=0;fontSize=14;exitPerimeter=0;" parent="1" source="RsfGlkPrkZYIVj8h8bdf-23" target="RsfGlkPrkZYIVj8h8bdf-93" edge="1">
          <mxGeometry width="50" height="50" relative="1" as="geometry">
            <mxPoint x="160" y="600" as="sourcePoint" />
            <mxPoint x="210" y="550" as="targetPoint" />
          </mxGeometry>
        </mxCell>
        <mxCell id="RsfGlkPrkZYIVj8h8bdf-95" value="" style="rhombus;whiteSpace=wrap;html=1;fontSize=14;" parent="1" vertex="1">
          <mxGeometry x="-210" y="70" width="40" height="40" as="geometry" />
        </mxCell>
        <mxCell id="RsfGlkPrkZYIVj8h8bdf-97" value="" style="endArrow=none;html=1;rounded=0;exitX=1;exitY=0;exitDx=0;exitDy=0;entryX=0;entryY=0.5;entryDx=0;entryDy=0;fontSize=14;edgeStyle=orthogonalEdgeStyle;" parent="1" source="RsfGlkPrkZYIVj8h8bdf-26" target="RsfGlkPrkZYIVj8h8bdf-95" edge="1">
          <mxGeometry width="50" height="50" relative="1" as="geometry">
            <mxPoint x="-70" y="330" as="sourcePoint" />
            <mxPoint x="-20" y="280" as="targetPoint" />
            <Array as="points">
              <mxPoint x="-370" y="240" />
              <mxPoint x="-270" y="240" />
              <mxPoint x="-270" y="90" />
            </Array>
          </mxGeometry>
        </mxCell>
        <mxCell id="RsfGlkPrkZYIVj8h8bdf-98" value="0..1" style="edgeLabel;html=1;align=center;verticalAlign=middle;resizable=0;points=[];fontSize=14;" parent="RsfGlkPrkZYIVj8h8bdf-97" vertex="1" connectable="0">
          <mxGeometry x="-0.6182" y="1" relative="1" as="geometry">
            <mxPoint x="-15" y="-19" as="offset" />
          </mxGeometry>
        </mxCell>
        <mxCell id="RsfGlkPrkZYIVj8h8bdf-99" value="0..*" style="edgeLabel;html=1;align=center;verticalAlign=middle;resizable=0;points=[];fontSize=14;" parent="RsfGlkPrkZYIVj8h8bdf-97" vertex="1" connectable="0">
          <mxGeometry x="0.7535" y="-1" relative="1" as="geometry">
            <mxPoint x="22" y="-21" as="offset" />
          </mxGeometry>
        </mxCell>
        <mxCell id="RsfGlkPrkZYIVj8h8bdf-102" value="OverseenBy" style="edgeLabel;html=1;align=center;verticalAlign=middle;resizable=0;points=[];fontSize=14;" parent="RsfGlkPrkZYIVj8h8bdf-97" vertex="1" connectable="0">
          <mxGeometry x="-0.0041" relative="1" as="geometry">
            <mxPoint y="-41" as="offset" />
          </mxGeometry>
        </mxCell>
        <mxCell id="RsfGlkPrkZYIVj8h8bdf-100" value="Facility contains a reference to the team in charge of it" style="shape=note;whiteSpace=wrap;html=1;backgroundOutline=1;darkOpacity=0.05;align=left;fontSize=14;" parent="1" vertex="1">
          <mxGeometry x="-590" y="130" width="250" height="50" as="geometry" />
        </mxCell>
        <mxCell id="RsfGlkPrkZYIVj8h8bdf-101" value="" style="endArrow=none;dashed=1;html=1;dashPattern=1 3;strokeWidth=2;rounded=0;exitX=0;exitY=0;exitDx=250.00000000000003;exitDy=30;exitPerimeter=0;fontSize=14;" parent="1" source="RsfGlkPrkZYIVj8h8bdf-100" edge="1">
          <mxGeometry width="50" height="50" relative="1" as="geometry">
            <mxPoint x="-70" y="330" as="sourcePoint" />
            <mxPoint x="-310" y="160" as="targetPoint" />
          </mxGeometry>
        </mxCell>
        <mxCell id="RsfGlkPrkZYIVj8h8bdf-103" value="" style="rhombus;whiteSpace=wrap;html=1;fontSize=14;" parent="1" vertex="1">
          <mxGeometry x="-477.5" y="450" width="45" height="40" as="geometry" />
        </mxCell>
        <mxCell id="RsfGlkPrkZYIVj8h8bdf-104" value="" style="endArrow=none;html=1;rounded=0;exitX=0.5;exitY=0;exitDx=0;exitDy=0;fontSize=14;edgeStyle=orthogonalEdgeStyle;" parent="1" source="RsfGlkPrkZYIVj8h8bdf-103" edge="1">
          <mxGeometry width="50" height="50" relative="1" as="geometry">
            <mxPoint x="-380" y="410" as="sourcePoint" />
            <mxPoint x="-440" y="320" as="targetPoint" />
            <Array as="points">
              <mxPoint x="-455" y="320" />
            </Array>
          </mxGeometry>
        </mxCell>
        <mxCell id="RsfGlkPrkZYIVj8h8bdf-106" value="0..*" style="edgeLabel;html=1;align=center;verticalAlign=middle;resizable=0;points=[];fontSize=14;" parent="RsfGlkPrkZYIVj8h8bdf-104" vertex="1" connectable="0">
          <mxGeometry x="-0.4323" y="1" relative="1" as="geometry">
            <mxPoint x="16" y="31" as="offset" />
          </mxGeometry>
        </mxCell>
        <mxCell id="RsfGlkPrkZYIVj8h8bdf-107" value="Configuration" style="edgeLabel;html=1;align=center;verticalAlign=middle;resizable=0;points=[];fontSize=14;" parent="RsfGlkPrkZYIVj8h8bdf-104" vertex="1" connectable="0">
          <mxGeometry x="0.0829" relative="1" as="geometry">
            <mxPoint x="5" y="11" as="offset" />
          </mxGeometry>
        </mxCell>
        <mxCell id="RsfGlkPrkZYIVj8h8bdf-108" value="The employee contains a ref to the team. We cannot use composition (like NestedTable) because of Operation4, where we need to access Employee directly" style="shape=note;whiteSpace=wrap;html=1;backgroundOutline=1;darkOpacity=0.05;size=21;fontSize=14;" parent="1" vertex="1">
          <mxGeometry x="-800" y="360" width="240" height="120" as="geometry" />
        </mxCell>
        <mxCell id="RsfGlkPrkZYIVj8h8bdf-109" value="" style="endArrow=none;dashed=1;html=1;dashPattern=1 3;strokeWidth=2;rounded=0;exitX=0;exitY=0;exitDx=240;exitDy=21;exitPerimeter=0;fontSize=14;" parent="1" source="RsfGlkPrkZYIVj8h8bdf-108" edge="1">
          <mxGeometry width="50" height="50" relative="1" as="geometry">
            <mxPoint x="-540" y="480" as="sourcePoint" />
            <mxPoint x="-490" y="380" as="targetPoint" />
          </mxGeometry>
        </mxCell>
        <mxCell id="RsfGlkPrkZYIVj8h8bdf-111" value="" style="rhombus;whiteSpace=wrap;html=1;fontSize=14;" parent="1" vertex="1">
          <mxGeometry x="-110" y="458" width="40" height="45" as="geometry" />
        </mxCell>
        <mxCell id="RsfGlkPrkZYIVj8h8bdf-112" value="" style="endArrow=none;html=1;rounded=0;exitX=1;exitY=0.75;exitDx=0;exitDy=0;entryX=0;entryY=0.5;entryDx=0;entryDy=0;fontSize=14;edgeStyle=orthogonalEdgeStyle;" parent="1" source="RsfGlkPrkZYIVj8h8bdf-27" target="RsfGlkPrkZYIVj8h8bdf-111" edge="1">
          <mxGeometry width="50" height="50" relative="1" as="geometry">
            <mxPoint x="-160" y="440" as="sourcePoint" />
            <mxPoint x="-110" y="390" as="targetPoint" />
            <Array as="points">
              <mxPoint x="-370" y="280" />
              <mxPoint x="-240" y="280" />
              <mxPoint x="-240" y="480" />
              <mxPoint x="-110" y="480" />
            </Array>
          </mxGeometry>
        </mxCell>
        <mxCell id="RsfGlkPrkZYIVj8h8bdf-115" value="1" style="edgeLabel;html=1;align=center;verticalAlign=middle;resizable=0;points=[];fontSize=14;" parent="RsfGlkPrkZYIVj8h8bdf-112" vertex="1" connectable="0">
          <mxGeometry x="-0.8533" y="-2" relative="1" as="geometry">
            <mxPoint x="-9" y="-22" as="offset" />
          </mxGeometry>
        </mxCell>
        <mxCell id="RsfGlkPrkZYIVj8h8bdf-116" value="0..*" style="edgeLabel;html=1;align=center;verticalAlign=middle;resizable=0;points=[];fontSize=14;" parent="RsfGlkPrkZYIVj8h8bdf-112" vertex="1" connectable="0">
          <mxGeometry x="0.7822" y="-1" relative="1" as="geometry">
            <mxPoint x="33" y="-14" as="offset" />
          </mxGeometry>
        </mxCell>
        <mxCell id="RsfGlkPrkZYIVj8h8bdf-117" value="Evaluation" style="edgeLabel;html=1;align=center;verticalAlign=middle;resizable=0;points=[];fontSize=14;" parent="RsfGlkPrkZYIVj8h8bdf-112" vertex="1" connectable="0">
          <mxGeometry x="-0.2011" y="3" relative="1" as="geometry">
            <mxPoint y="50" as="offset" />
          </mxGeometry>
        </mxCell>
        <mxCell id="RsfGlkPrkZYIVj8h8bdf-113" value="" style="rhombus;whiteSpace=wrap;html=1;fontSize=14;" parent="1" vertex="1">
          <mxGeometry x="80" y="458" width="40" height="42" as="geometry" />
        </mxCell>
        <mxCell id="RsfGlkPrkZYIVj8h8bdf-114" value="" style="endArrow=none;html=1;rounded=0;entryX=0;entryY=0.5;entryDx=0;entryDy=0;exitX=1;exitY=0.5;exitDx=0;exitDy=0;fontSize=14;edgeStyle=orthogonalEdgeStyle;" parent="1" source="RsfGlkPrkZYIVj8h8bdf-113" target="RsfGlkPrkZYIVj8h8bdf-13" edge="1">
          <mxGeometry width="50" height="50" relative="1" as="geometry">
            <mxPoint x="-160" y="440" as="sourcePoint" />
            <mxPoint x="-110" y="390" as="targetPoint" />
          </mxGeometry>
        </mxCell>
        <mxCell id="RsfGlkPrkZYIVj8h8bdf-118" value="Gives" style="edgeLabel;html=1;align=center;verticalAlign=middle;resizable=0;points=[];fontSize=14;" parent="RsfGlkPrkZYIVj8h8bdf-114" vertex="1" connectable="0">
          <mxGeometry x="-0.1093" y="-1" relative="1" as="geometry">
            <mxPoint x="-1" y="-12" as="offset" />
          </mxGeometry>
        </mxCell>
        <mxCell id="RsfGlkPrkZYIVj8h8bdf-119" value="1" style="edgeLabel;html=1;align=center;verticalAlign=middle;resizable=0;points=[];fontSize=14;" parent="RsfGlkPrkZYIVj8h8bdf-114" vertex="1" connectable="0">
          <mxGeometry x="0.5151" y="-2" relative="1" as="geometry">
            <mxPoint x="49" y="-11" as="offset" />
          </mxGeometry>
        </mxCell>
        <mxCell id="RsfGlkPrkZYIVj8h8bdf-120" value="0..*" style="edgeLabel;html=1;align=center;verticalAlign=middle;resizable=0;points=[];fontSize=14;" parent="RsfGlkPrkZYIVj8h8bdf-114" vertex="1" connectable="0">
          <mxGeometry x="-0.6004" y="-1" relative="1" as="geometry">
            <mxPoint x="-38" y="10" as="offset" />
          </mxGeometry>
        </mxCell>
        <mxCell id="RsfGlkPrkZYIVj8h8bdf-121" value="Feedback contains&amp;nbsp;&lt;div&gt;a ref of the account&lt;/div&gt;" style="shape=note;whiteSpace=wrap;html=1;backgroundOutline=1;darkOpacity=0.05;align=left;fontSize=14;" parent="1" vertex="1">
          <mxGeometry x="-20" y="330" width="150" height="60" as="geometry" />
        </mxCell>
        <mxCell id="RsfGlkPrkZYIVj8h8bdf-123" value="Feedback contains&amp;nbsp;&lt;div&gt;a ref of the Team&lt;/div&gt;" style="shape=note;whiteSpace=wrap;html=1;backgroundOutline=1;darkOpacity=0.05;align=left;fontSize=14;" parent="1" vertex="1">
          <mxGeometry x="-205" y="267.5" width="150" height="52.5" as="geometry" />
        </mxCell>
        <mxCell id="RsfGlkPrkZYIVj8h8bdf-125" value="" style="rhombus;whiteSpace=wrap;html=1;fontSize=14;" parent="1" vertex="1">
          <mxGeometry x="390" y="307.5" width="40" height="40" as="geometry" />
        </mxCell>
        <mxCell id="RsfGlkPrkZYIVj8h8bdf-126" value="" style="endArrow=none;html=1;rounded=0;entryX=0;entryY=0.5;entryDx=0;entryDy=0;exitX=1;exitY=0.5;exitDx=0;exitDy=0;fontSize=14;" parent="1" source="RsfGlkPrkZYIVj8h8bdf-125" target="RsfGlkPrkZYIVj8h8bdf-19" edge="1">
          <mxGeometry width="50" height="50" relative="1" as="geometry">
            <mxPoint x="500" y="350" as="sourcePoint" />
            <mxPoint x="550" y="300" as="targetPoint" />
          </mxGeometry>
        </mxCell>
        <mxCell id="RsfGlkPrkZYIVj8h8bdf-127" value="0..*" style="edgeLabel;html=1;align=center;verticalAlign=middle;resizable=0;points=[];fontSize=14;" parent="RsfGlkPrkZYIVj8h8bdf-126" vertex="1" connectable="0">
          <mxGeometry x="-0.8494" relative="1" as="geometry">
            <mxPoint y="10" as="offset" />
          </mxGeometry>
        </mxCell>
        <mxCell id="RsfGlkPrkZYIVj8h8bdf-128" value="1" style="edgeLabel;html=1;align=center;verticalAlign=middle;resizable=0;points=[];fontSize=14;" parent="RsfGlkPrkZYIVj8h8bdf-126" vertex="1" connectable="0">
          <mxGeometry x="0.7589" y="-1" relative="1" as="geometry">
            <mxPoint x="8" y="8" as="offset" />
          </mxGeometry>
        </mxCell>
        <mxCell id="RsfGlkPrkZYIVj8h8bdf-137" value="Has" style="edgeLabel;html=1;align=center;verticalAlign=middle;resizable=0;points=[];fontSize=14;" parent="RsfGlkPrkZYIVj8h8bdf-126" vertex="1" connectable="0">
          <mxGeometry x="-0.1904" y="-4" relative="1" as="geometry">
            <mxPoint x="14" y="-15" as="offset" />
          </mxGeometry>
        </mxCell>
        <mxCell id="RsfGlkPrkZYIVj8h8bdf-129" value="&amp;nbsp;Account contains a&amp;nbsp;&lt;div&gt;&amp;nbsp;ref to the customer&lt;/div&gt;" style="shape=note;whiteSpace=wrap;html=1;backgroundOutline=1;darkOpacity=0.05;align=left;fontSize=14;" parent="1" vertex="1">
          <mxGeometry x="400" y="190" width="160" height="60" as="geometry" />
        </mxCell>
        <mxCell id="RsfGlkPrkZYIVj8h8bdf-130" value="" style="endArrow=none;dashed=1;html=1;dashPattern=1 3;strokeWidth=2;rounded=0;exitX=0.5;exitY=1;exitDx=0;exitDy=0;exitPerimeter=0;fontSize=14;" parent="1" source="RsfGlkPrkZYIVj8h8bdf-129" edge="1">
          <mxGeometry width="50" height="50" relative="1" as="geometry">
            <mxPoint x="490" y="390" as="sourcePoint" />
            <mxPoint x="480" y="330" as="targetPoint" />
          </mxGeometry>
        </mxCell>
        <mxCell id="RsfGlkPrkZYIVj8h8bdf-133" value="The customer&amp;nbsp;&lt;div&gt;associated&amp;nbsp;&lt;span style=&quot;background-color: transparent; color: light-dark(rgb(0, 0, 0), rgb(255, 255, 255));&quot;&gt;to the account&amp;nbsp;&lt;/span&gt;&lt;div&gt;&lt;div&gt;and the contract must be&amp;nbsp;&lt;/div&gt;&lt;div&gt;of the same type&lt;/div&gt;&lt;/div&gt;&lt;/div&gt;" style="shape=note;whiteSpace=wrap;html=1;backgroundOutline=1;darkOpacity=0.05;fontSize=14;size=24;" parent="1" vertex="1">
          <mxGeometry x="20" y="170" width="200" height="80" as="geometry" />
        </mxCell>
        <mxCell id="RsfGlkPrkZYIVj8h8bdf-135" value="&lt;br&gt;&lt;div&gt;Type is Commercial or Residential&lt;/div&gt;&lt;div&gt;&lt;br&gt;&lt;/div&gt;&lt;div&gt;EnergyPlan can be; 2.500 kWh, 4.500 kWh or 10.000 kWh&lt;/div&gt;&lt;div&gt;Cost: 500 if EnergyPlan=2.500, 750 if EnergyPlan=4.500, 1000 if EnergyPlan=10-000&lt;/div&gt;" style="shape=note;whiteSpace=wrap;html=1;backgroundOutline=1;darkOpacity=0.05;align=left;fontSize=14;" parent="1" vertex="1">
          <mxGeometry x="470" y="-167.5" width="240" height="180" as="geometry" />
        </mxCell>
        <mxCell id="RsfGlkPrkZYIVj8h8bdf-136" value="" style="endArrow=none;dashed=1;html=1;dashPattern=1 3;strokeWidth=2;rounded=0;entryX=0;entryY=0.787;entryDx=0;entryDy=0;entryPerimeter=0;fontSize=14;exitX=1;exitY=1;exitDx=0;exitDy=0;" parent="1" source="RsfGlkPrkZYIVj8h8bdf-8" target="RsfGlkPrkZYIVj8h8bdf-135" edge="1">
          <mxGeometry width="50" height="50" relative="1" as="geometry">
            <mxPoint x="380" y="-60" as="sourcePoint" />
            <mxPoint x="430" y="-110" as="targetPoint" />
          </mxGeometry>
        </mxCell>
        <mxCell id="RsfGlkPrkZYIVj8h8bdf-138" value="" style="rhombus;whiteSpace=wrap;html=1;fontSize=14;" parent="1" vertex="1">
          <mxGeometry x="190" y="-10" width="50" height="54" as="geometry" />
        </mxCell>
        <mxCell id="RsfGlkPrkZYIVj8h8bdf-139" value="" style="endArrow=none;html=1;rounded=0;entryX=0;entryY=0.5;entryDx=0;entryDy=0;exitX=1;exitY=0.25;exitDx=0;exitDy=0;fontSize=14;edgeStyle=orthogonalEdgeStyle;" parent="1" source="RsfGlkPrkZYIVj8h8bdf-2" target="RsfGlkPrkZYIVj8h8bdf-138" edge="1">
          <mxGeometry width="50" height="50" relative="1" as="geometry">
            <mxPoint x="10" y="60" as="sourcePoint" />
            <mxPoint x="60" y="10" as="targetPoint" />
            <Array as="points">
              <mxPoint x="90" y="51" />
              <mxPoint x="90" y="17" />
            </Array>
          </mxGeometry>
        </mxCell>
        <mxCell id="RsfGlkPrkZYIVj8h8bdf-140" value="1" style="edgeLabel;html=1;align=center;verticalAlign=middle;resizable=0;points=[];fontSize=14;" parent="RsfGlkPrkZYIVj8h8bdf-139" vertex="1" connectable="0">
          <mxGeometry x="-0.6806" y="6" relative="1" as="geometry">
            <mxPoint x="-23" y="-5" as="offset" />
          </mxGeometry>
        </mxCell>
        <mxCell id="RsfGlkPrkZYIVj8h8bdf-141" value="0..*" style="edgeLabel;html=1;align=center;verticalAlign=middle;resizable=0;points=[];fontSize=14;" parent="RsfGlkPrkZYIVj8h8bdf-139" vertex="1" connectable="0">
          <mxGeometry x="0.6927" y="-4" relative="1" as="geometry">
            <mxPoint x="22" y="-21" as="offset" />
          </mxGeometry>
        </mxCell>
        <mxCell id="RsfGlkPrkZYIVj8h8bdf-142" value="Provides" style="edgeLabel;html=1;align=center;verticalAlign=middle;resizable=0;points=[];fontSize=14;" parent="RsfGlkPrkZYIVj8h8bdf-139" vertex="1" connectable="0">
          <mxGeometry x="-0.2078" y="-1" relative="1" as="geometry">
            <mxPoint x="-1" y="-16" as="offset" />
          </mxGeometry>
        </mxCell>
        <mxCell id="RsfGlkPrkZYIVj8h8bdf-143" value="The sum of the EnergyPlan cannot exceed MaxOutputEnergy" style="shape=note;whiteSpace=wrap;html=1;backgroundOutline=1;darkOpacity=0.05;align=left;fontSize=14;" parent="1" vertex="1">
          <mxGeometry x="10" y="-167.5" width="250" height="55" as="geometry" />
        </mxCell>
        <mxCell id="445JLuFFyYD1yJKFccgF-1" value="" style="group;fontSize=14;" parent="1" vertex="1" connectable="0">
          <mxGeometry x="-130" y="-360" width="180" height="140" as="geometry" />
        </mxCell>
        <mxCell id="445JLuFFyYD1yJKFccgF-2" value="" style="edgeStyle=orthogonalEdgeStyle;rounded=0;orthogonalLoop=1;jettySize=auto;html=1;fontSize=14;" parent="445JLuFFyYD1yJKFccgF-1" source="445JLuFFyYD1yJKFccgF-3" target="445JLuFFyYD1yJKFccgF-4" edge="1">
          <mxGeometry relative="1" as="geometry" />
        </mxCell>
        <mxCell id="445JLuFFyYD1yJKFccgF-5" value="" style="edgeStyle=orthogonalEdgeStyle;rounded=0;orthogonalLoop=1;jettySize=auto;html=1;" parent="445JLuFFyYD1yJKFccgF-1" source="445JLuFFyYD1yJKFccgF-3" target="445JLuFFyYD1yJKFccgF-4" edge="1">
          <mxGeometry relative="1" as="geometry" />
        </mxCell>
        <mxCell id="445JLuFFyYD1yJKFccgF-3" value="LocationTY" style="rounded=0;whiteSpace=wrap;html=1;fontSize=14;" parent="445JLuFFyYD1yJKFccgF-1" vertex="1">
          <mxGeometry width="180" height="35" as="geometry" />
        </mxCell>
        <mxCell id="445JLuFFyYD1yJKFccgF-4" value="City: String&lt;div&gt;Region: String&lt;/div&gt;&lt;div&gt;State: String&lt;/div&gt;" style="rounded=0;whiteSpace=wrap;html=1;fontSize=14;" parent="445JLuFFyYD1yJKFccgF-1" vertex="1">
          <mxGeometry y="35" width="180" height="65" as="geometry" />
        </mxCell>
        <mxCell id="NaRHOr1kHkGD2ttG-riy-10" value="1" style="edgeLabel;html=1;align=center;verticalAlign=middle;resizable=0;points=[];fontSize=14;" parent="445JLuFFyYD1yJKFccgF-1" vertex="1" connectable="0">
          <mxGeometry x="110.00090241977321" y="130.00000596893574" as="geometry">
            <mxPoint x="-48" y="-20" as="offset" />
          </mxGeometry>
        </mxCell>
        <mxCell id="NaRHOr1kHkGD2ttG-riy-5" style="edgeStyle=orthogonalEdgeStyle;rounded=0;orthogonalLoop=1;jettySize=auto;html=1;exitX=0.5;exitY=0;exitDx=0;exitDy=0;entryX=0.25;entryY=1;entryDx=0;entryDy=0;endArrow=none;startFill=0;" parent="1" source="NaRHOr1kHkGD2ttG-riy-3" target="445JLuFFyYD1yJKFccgF-4" edge="1">
          <mxGeometry relative="1" as="geometry">
            <Array as="points">
              <mxPoint x="-80" y="-260" />
            </Array>
          </mxGeometry>
        </mxCell>
        <mxCell id="NaRHOr1kHkGD2ttG-riy-3" value="" style="rhombus;whiteSpace=wrap;html=1;fontSize=14;fillColor=#000000;" parent="1" vertex="1">
          <mxGeometry x="-100" y="-50" width="40" height="40" as="geometry" />
        </mxCell>
        <mxCell id="NaRHOr1kHkGD2ttG-riy-6" value="" style="endArrow=none;dashed=1;html=1;dashPattern=1 3;strokeWidth=2;rounded=0;exitX=0;exitY=0;exitDx=200;exitDy=52;exitPerimeter=0;fontSize=14;" parent="1" source="RsfGlkPrkZYIVj8h8bdf-133" edge="1">
          <mxGeometry width="50" height="50" relative="1" as="geometry">
            <mxPoint x="490" y="260" as="sourcePoint" />
            <mxPoint x="290" y="222" as="targetPoint" />
          </mxGeometry>
        </mxCell>
        <mxCell id="NaRHOr1kHkGD2ttG-riy-7" value="0..1" style="edgeLabel;html=1;align=center;verticalAlign=middle;resizable=0;points=[];fontSize=14;" parent="1" vertex="1" connectable="0">
          <mxGeometry x="-434" y="300.0021739130435" as="geometry">
            <mxPoint x="-6" y="31" as="offset" />
          </mxGeometry>
        </mxCell>
        <mxCell id="NaRHOr1kHkGD2ttG-riy-11" value="1" style="text;html=1;align=center;verticalAlign=middle;resizable=0;points=[];autosize=1;strokeColor=none;fillColor=none;" parent="1" vertex="1">
          <mxGeometry x="-80" y="-70" width="30" height="30" as="geometry" />
        </mxCell>
      </root>
    </mxGraphModel>
  </diagram>
</mxfile>
